<?xml version="1.0" encoding="UTF-8"?>
<svg xmlns="http://www.w3.org/2000/svg" width="1422" height="197" viewBox="0 0 1422 197" fill="none">
  <path d="M195.004 52.5747V182.575C195.004 186.023 193.634 189.329 191.196 191.767C188.758 194.205 185.451 195.575 182.004 195.575H52.001C38.2095 195.575 24.9828 190.096 15.2307 180.344C5.47866 170.592 0 157.366 0 143.575V52.5747C0 38.7834 5.47866 25.557 15.2307 15.8051C24.9828 6.05322 38.2095 0.574707 52.001 0.574707H143.003C156.794 0.574707 170.021 6.05322 179.773 15.8051C189.525 25.557 195.004 38.7834 195.004 52.5747Z" fill="#88AF67"></path>
  <path fill-rule="evenodd" clip-rule="evenodd" d="M457.32 112.665C457.32 112.665 457.32 112.665 457.32 112.665V112.665ZM577.987 149.123C577.987 149.123 577.987 149.123 577.987 149.123V149.123ZM970.226 141.266C970.226 141.266 970.226 141.266 970.226 141.266V141.266ZM1170.47 103.265C1170.47 103.265 1170.47 103.265 1170.47 103.265V103.265ZM1327.1 103.265C1327.1 103.265 1327.1 103.265 1327.1 103.265V103.265ZM345.858 175.195L313.281 129.063H281.534V175.195H252.195V28.8859H314.418C331.357 28.8859 345.826 33.8481 356.04 42.5421C366.237 51.2217 372.268 63.68 372.268 78.865C372.268 98.7192 361.618 114.285 344.723 122.626L343.473 123.243L380.767 175.195H345.858ZM281.534 55.3823V102.348H313.325C321.508 102.348 328.984 100.107 334.445 96.0472C339.928 91.971 343.367 86.0604 343.367 78.865C343.367 71.5643 339.931 65.6508 334.442 61.5985C328.978 57.5648 321.502 55.3823 313.325 55.3823H281.534ZM436.945 154.82C445.42 154.82 451.661 152.286 455.294 146.95H484.764C478.71 165.654 459.936 178.475 436.289 178.475C403.281 178.475 381.063 154.744 381.063 124.123C381.063 108.223 386.591 94.5932 396.109 84.9421C405.625 75.2931 419.196 69.5523 435.414 69.5523C450.106 69.5523 462.859 74.749 471.937 83.8535C481.013 92.9564 486.487 106.037 486.487 121.936C486.487 125.756 486.319 128.036 485.982 130.593H408.397L408.674 132.003C409.913 138.307 412.634 144.03 417.272 148.179C421.924 152.34 428.397 154.82 436.945 154.82ZM408.553 115.029H458.847L458.668 113.691C457.767 106.933 455.271 101.569 451.304 97.894C447.329 94.2116 441.995 92.3318 435.633 92.3318C428.067 92.3318 422.098 94.5398 417.646 98.3555C413.206 102.161 410.368 107.486 408.904 113.57L408.553 115.029ZM579.704 96.0486H541.88V134.399C541.88 140.55 543.769 145.226 547.278 148.345C550.764 151.444 555.676 152.853 561.428 152.853C566.855 152.853 572.629 151.692 578.164 150.297L581.752 174.017C569.837 177.669 564.312 178.475 554.868 178.475C542.479 178.475 532.311 174.103 525.234 166.498C518.15 158.885 514.072 147.932 514.072 134.617V96.0486H491.99V72.8318H514.072V35.445H541.88V72.8318H579.704V96.0486ZM670.283 79.9471V72.8318H698.309V175.195H670.283V168.08L668.458 169.264C660.57 174.38 650.958 177.381 639.366 177.381C611.2 177.381 588.294 153.902 588.294 124.123C588.294 93.9062 611.2 70.6455 639.366 70.6455C650.958 70.6455 660.57 73.6473 668.458 78.7633L670.283 79.9471ZM670.283 141.136V106.899L670.052 106.586C663.01 97.0457 653.659 93.8623 644.395 93.8623C627.665 93.8623 616.102 108.07 616.102 124.123C616.102 139.974 627.681 153.946 644.395 153.946C653.655 153.946 663.001 150.766 670.044 141.452L670.283 141.136ZM752.811 34.7005C752.811 44.0486 745.309 51.0096 735.846 51.0096C726.156 51.0096 718.663 44.0397 718.663 34.7005C718.663 25.1144 726.186 17.9541 735.846 17.9541C745.279 17.9541 752.811 25.1053 752.811 34.7005ZM749.969 72.8318V175.195H721.942V72.8318H749.969ZM801.033 175.195H773.006V22.3268H801.033V175.195ZM937.635 175.195L926.047 146.554H857.114L845.526 175.195H814.445L877.493 28.0114H905.667L968.5 175.195H937.635ZM867.75 120.276H915.424L891.351 61.5095L867.75 120.276ZM1034.85 114.573L1034.86 114.574L1004.88 133.234C997.02 131.835 989.541 128.999 984.047 124.241C978.59 119.515 975.026 112.843 975.026 103.571C975.026 93.0108 979.442 84.6707 987.097 78.9363C994.788 73.1749 1005.83 69.9896 1019.1 69.9896C1027.96 69.9896 1038.94 71.5074 1047.93 76.587C1056.58 81.4783 1063.45 89.6934 1064.82 103.274L1039.41 103.474C1038.78 98.9388 1036.29 95.684 1032.77 93.5668C1029.03 91.313 1024.15 90.3641 1019.1 90.3641C1013.72 90.3641 1009.59 91.4268 1006.77 93.228C1003.92 95.0487 1002.4 97.6386 1002.4 100.51C1002.4 102.793 1003.24 105.138 1005.4 107.121C1007.54 109.075 1010.9 110.614 1015.83 111.512L1034.85 114.573ZM1027.37 137.166L1004.88 133.235L1034.86 114.574C1043.3 116.089 1050.99 118.771 1056.55 123.417C1062.06 128.021 1065.58 134.625 1065.58 144.237C1065.58 155.54 1060.69 164.038 1052.56 169.752C1044.37 175.5 1032.83 178.475 1019.54 178.475C1007.54 178.475 995.998 176.039 987.219 170.044C978.75 164.262 972.739 155.094 971.414 141.275L996.901 141.476C997.949 146.815 1000.49 150.688 1004.32 153.229C1008.33 155.895 1013.62 157.007 1019.76 157.007C1025.11 157.007 1029.74 156.117 1033.08 154.45C1036.41 152.781 1038.65 150.212 1038.65 146.861C1038.65 142.085 1034.65 138.306 1027.38 137.168L1027.37 137.166ZM1139.32 114.573L1139.33 114.575C1147.76 116.089 1155.45 118.771 1161.02 123.417C1166.53 128.021 1170.05 134.625 1170.05 144.237C1170.05 155.54 1165.16 164.038 1157.02 169.752C1148.84 175.5 1137.3 178.475 1124.01 178.475C1112.01 178.475 1100.47 176.039 1091.69 170.044C1083.22 164.262 1077.21 155.094 1075.88 141.275L1101.37 141.476C1102.42 146.815 1104.96 150.688 1108.79 153.229C1112.8 155.895 1118.09 157.007 1124.22 157.007C1129.58 157.007 1134.21 156.117 1137.54 154.45C1140.88 152.781 1143.12 150.212 1143.12 146.861C1143.12 142.085 1139.11 138.306 1131.85 137.168L1131.84 137.166L1109.35 133.235C1101.49 131.836 1094.01 129 1088.51 124.241C1083.06 119.515 1079.49 112.843 1079.49 103.571C1079.49 93.0108 1083.91 84.6707 1091.56 78.9363C1099.25 73.1749 1110.3 69.9896 1123.57 69.9896C1132.43 69.9896 1143.41 71.5074 1152.39 76.587C1161.05 81.4783 1167.92 89.6934 1169.29 103.274L1143.87 103.474C1143.24 98.9388 1140.76 95.684 1137.24 93.5668C1133.5 91.313 1128.61 90.3641 1123.57 90.3641C1118.19 90.3641 1114.06 91.4268 1111.24 93.228C1108.38 95.0487 1106.86 97.6386 1106.86 100.51C1106.86 102.793 1107.7 105.138 1109.87 107.121C1112.01 109.075 1115.36 110.614 1120.3 111.512L1139.32 114.573ZM1219.42 34.7005C1219.42 44.0486 1211.92 51.0096 1202.46 51.0096C1192.77 51.0096 1185.27 44.0397 1185.27 34.7005C1185.27 25.1144 1192.79 17.9541 1202.46 17.9541C1211.89 17.9541 1219.42 25.1053 1219.42 34.7005ZM1216.58 72.8318V175.195H1188.55V72.8318H1216.58ZM1295.94 114.573L1295.95 114.575C1304.39 116.089 1312.08 118.771 1317.64 123.417C1323.16 128.021 1326.67 134.625 1326.67 144.237C1326.67 155.54 1321.79 164.038 1313.65 169.752C1305.46 175.5 1293.92 178.475 1280.63 178.475C1268.63 178.475 1257.09 176.039 1248.31 170.044C1239.84 164.262 1233.83 155.094 1232.51 141.275L1257.99 141.476C1259.04 146.815 1261.58 150.688 1265.41 153.229C1269.42 155.895 1274.72 157.007 1280.85 157.007C1286.21 157.007 1290.83 156.117 1294.17 154.45C1297.5 152.781 1299.74 150.212 1299.74 146.861C1299.74 142.085 1295.74 138.306 1288.48 137.168L1288.46 137.166L1265.97 133.235C1258.11 131.836 1250.63 129 1245.14 124.241C1239.68 119.515 1236.12 112.843 1236.12 103.571C1236.12 93.0108 1240.53 84.6707 1248.19 78.9363C1255.88 73.1749 1266.92 69.9896 1280.19 69.9896C1289.05 69.9896 1300.03 71.5074 1309.02 76.587C1317.67 81.4783 1324.54 89.6934 1325.91 103.274L1300.5 103.474C1299.87 98.9388 1297.39 95.684 1293.87 93.5668C1290.12 91.313 1285.24 90.3641 1280.19 90.3641C1274.81 90.3641 1270.68 91.4268 1267.86 93.228C1265.01 95.0487 1263.49 97.6386 1263.49 100.51C1263.49 102.793 1264.33 105.138 1266.5 107.121C1268.63 109.075 1271.99 110.614 1276.92 111.512L1295.94 114.573ZM1419.77 96.0486H1381.95V134.399C1381.95 140.55 1383.84 145.226 1387.35 148.345C1390.83 151.444 1395.74 152.853 1401.49 152.853C1406.92 152.853 1412.7 151.692 1418.23 150.297L1421.82 174.017C1409.9 177.669 1404.38 178.475 1394.94 178.475C1382.55 178.475 1372.38 174.103 1365.3 166.498C1358.22 158.885 1354.14 147.932 1354.14 134.617V96.0486H1332.06V72.8318H1354.14V35.445H1381.95V72.8318H1419.77V96.0486ZM1074.69 141.265C1074.69 141.265 1074.69 141.265 1074.69 141.265V141.265ZM1231.32 141.265C1231.32 141.265 1231.32 141.265 1231.32 141.265V141.265Z" fill="#111827"></path>
  <path d="M58.5368 55.1816C55.5792 55.1816 53.1816 57.516 53.1816 60.3955C53.1816 63.2751 55.5792 65.6094 58.5368 65.6094H65.0658L66.7021 71.9821C66.7193 72.0558 66.7381 72.1289 66.7584 72.2013L74.0266 100.507L69.2467 105.161C62.4997 111.73 67.2782 122.962 76.82 122.962H122.798C125.755 122.962 128.153 120.628 128.153 117.748C128.153 114.869 125.755 112.535 122.798 112.535L76.82 112.535L82.1751 107.321H117.443C119.471 107.321 121.326 106.205 122.233 104.438L138.298 73.1551C139.128 71.5388 139.039 69.6194 138.064 68.0822C137.088 66.5451 135.364 65.6094 133.508 65.6094H76.1057L74.4422 59.131C73.8462 56.8099 71.7043 55.1816 69.247 55.1816H58.5368Z" fill="white"></path>
  <path d="M128.153 135.997C128.153 140.316 124.557 143.818 120.121 143.818C115.684 143.818 112.088 140.316 112.088 135.997C112.088 131.678 115.684 128.176 120.121 128.176C124.557 128.176 128.153 131.678 128.153 135.997Z" fill="white"></path>
  <path d="M77.2796 143.818C81.716 143.818 85.3123 140.316 85.3123 135.997C85.3123 131.678 81.716 128.176 77.2796 128.176C72.8433 128.176 69.247 131.678 69.247 135.997C69.247 140.316 72.8433 143.818 77.2796 143.818Z" fill="white"></path>
</svg>
